<svg width="26" height="26" viewBox="0 0 26 26" fill="none" xmlns="http://www.w3.org/2000/svg">
<path d="M25 25L17.862 17.862M20.6723 10.8361C20.6723 12.1278 20.4179 13.4069 19.9236 14.6003C19.4292 15.7937 18.7047 16.878 17.7914 17.7914C16.878 18.7047 15.7937 19.4292 14.6003 19.9236C13.4069 20.4179 12.1278 20.6723 10.8361 20.6723C9.54444 20.6723 8.26539 20.4179 7.07202 19.9236C5.87864 19.4292 4.79431 18.7047 3.88094 17.7914C2.96757 16.878 2.24304 15.7937 1.74873 14.6003C1.25442 13.4069 1 12.1278 1 10.8361C1 8.22744 2.03631 5.72558 3.88094 3.88094C5.72558 2.0363 8.22744 1 10.8361 1C13.4449 1 15.9467 2.0363 17.7914 3.88094C19.636 5.72558 20.6723 8.22744 20.6723 10.8361Z" stroke="#161616" stroke-width="2" stroke-linecap="round" stroke-linejoin="round"/>
</svg>
